# xmcd CD database file
#
# Track frame offsets:
#	150
#	10214
#	23190
#	35719
#	45668
#	58750
#	68191
#	80559
#	91853
#	103659
#	118644
#	135725
#	149320
#	160009
#	172896
#	183835
#	199836
#
# Disc length: 2830 seconds
#
# Revision: 0
# Processed by: cddbd v1.4PL0 Copyright (c) Steve Scherf et al.
# Submitted via: Feurio! 1.66 - http://www.feurio.com
#
DISCID=e30b0c11
DTITLE=The Flatlanders - One Road More
DYEAR=1989
DGENRE=Countryrock
TTITLE0=Flatlanders - You Ve Never Seen Me Cry
TTITLE1=Flatlanders - Dallas
TTITLE2=Flatlanders - Tonight I Think I M Gonna Go Downtown
TTITLE3=Flatlanders - She Had Everything
TTITLE4=Flatlanders - Bhagavan Decreed
TTITLE5=Flatlanders - Rose From The Mountain
TTITLE6=Flatlanders - Down In My Hometown
TTITLE7=Flatlanders - One Road More
TTITLE8=Flatlanders - Waiting For A Train
TTITLE9=Flatlanders - Hello Stranger
TTITLE10=Flatlanders - One Day At A Time
TTITLE11=Flatlanders - Stars In My Life
TTITLE12=Flatlanders - Not So Long Ago
TTITLE13=Flatlanders - I Know You
TTITLE14=Flatlanders - The Heart You Left Behind
TTITLE15=Flatlanders - Jole Blon
TTITLE16=Flatlanders - Keeper Of The Mountain
EXTD=(c)1989 Charly Records Ltd.\r\nCRM 2038\r\nAll songs recorded Feb 1972 at 
EXTD=The Singleton Sound Studio.
EXTT0=
EXTT1=
EXTT2=
EXTT3=
EXTT4=
EXTT5=
EXTT6=
EXTT7=
EXTT8=
EXTT9=
EXTT10=
EXTT11=
EXTT12=
EXTT13=
EXTT14=
EXTT15=
EXTT16=
PLAYORDER=
